<svg width="20" height="22" viewBox="0 0 20 22" fill="none" xmlns="http://www.w3.org/2000/svg">
<rect width="11.1241" height="1.73344" transform="matrix(0.866025 0.5 -0.0174524 0.999848 9.75061 0)" fill="#4A895C"/>
<rect width="11.1241" height="1.73344" transform="matrix(0.00196875 0.999998 -0.873663 0.486531 1.5144 3.90018)" fill="#4A895C"/>
<rect width="11.1241" height="1.73344" transform="matrix(0.00196875 0.999998 -0.873663 0.486531 4.98364 1.9501)" fill="#4A895C"/>
<rect width="11.1241" height="1.73344" transform="matrix(0.00196875 0.999998 -0.873663 0.486531 8.45056 0)" fill="#4A895C"/>
<rect width="11.1241" height="1.73344" transform="matrix(0.866025 0.5 -0.0174524 0.999848 9.75061 3.90018)" fill="#4A895C"/>
<rect width="11.1241" height="1.73344" transform="matrix(0.866025 0.5 -0.0174524 0.999848 9.75061 7.80054)" fill="#4A895C"/>
<rect width="11.1241" height="1.73344" transform="matrix(0.866025 -0.5 0.920505 0.390731 0.866821 17.0462)" fill="#4A895C"/>
<rect width="11.1241" height="1.73344" transform="matrix(0.866025 -0.5 0.920505 0.390731 4.11707 18.8512)" fill="#4A895C"/>
<rect width="11.1241" height="1.73344" transform="matrix(0.866025 -0.5 0.920505 0.390731 7.36731 20.8013)" fill="#4A895C"/>
</svg>
